<mxfile host="app.diagrams.net" agent="Mozilla/5.0 (Windows NT 10.0; Win64; x64) AppleWebKit/537.36 (KHTML, like Gecko) Chrome/132.0.0.0 Safari/537.36" version="26.0.15">
  <diagram name="Page-1" id="kjGFu-rsRzSXCmrXt7QM">
    <mxGraphModel dx="677" dy="359" grid="1" gridSize="10" guides="1" tooltips="1" connect="1" arrows="1" fold="1" page="1" pageScale="1" pageWidth="850" pageHeight="1100" math="0" shadow="0">
      <root>
        <mxCell id="0" />
        <mxCell id="1" parent="0" />
        <mxCell id="8v7cfthiRNaVu4QHmrS_-1" value="" style="shape=actor;whiteSpace=wrap;html=1;" vertex="1" parent="1">
          <mxGeometry x="20" y="150" width="40" height="60" as="geometry" />
        </mxCell>
        <mxCell id="8v7cfthiRNaVu4QHmrS_-2" value="" style="endArrow=classic;html=1;rounded=0;" edge="1" parent="1" target="8v7cfthiRNaVu4QHmrS_-4">
          <mxGeometry relative="1" as="geometry">
            <mxPoint x="80" y="179.5" as="sourcePoint" />
            <mxPoint x="180" y="179.5" as="targetPoint" />
          </mxGeometry>
        </mxCell>
        <mxCell id="8v7cfthiRNaVu4QHmrS_-4" value="" style="points=[];aspect=fixed;html=1;align=center;shadow=0;dashed=0;fillColor=#FF6A00;strokeColor=none;shape=mxgraph.alibaba_cloud.webplus_web_app_service;" vertex="1" parent="1">
          <mxGeometry x="170" y="152.55" width="54.900000000000006" height="54.900000000000006" as="geometry" />
        </mxCell>
        <mxCell id="8v7cfthiRNaVu4QHmrS_-5" value="web app" style="text;html=1;align=center;verticalAlign=middle;whiteSpace=wrap;rounded=0;" vertex="1" parent="1">
          <mxGeometry x="170" y="100" width="60" height="30" as="geometry" />
        </mxCell>
        <mxCell id="8v7cfthiRNaVu4QHmrS_-6" value="user" style="text;html=1;align=center;verticalAlign=middle;whiteSpace=wrap;rounded=0;" vertex="1" parent="1">
          <mxGeometry x="10" y="100" width="60" height="30" as="geometry" />
        </mxCell>
        <mxCell id="8v7cfthiRNaVu4QHmrS_-7" value="" style="endArrow=classic;html=1;rounded=0;" edge="1" parent="1" target="8v7cfthiRNaVu4QHmrS_-9">
          <mxGeometry relative="1" as="geometry">
            <mxPoint x="240" y="179.5" as="sourcePoint" />
            <mxPoint x="340" y="179.5" as="targetPoint" />
          </mxGeometry>
        </mxCell>
        <mxCell id="8v7cfthiRNaVu4QHmrS_-8" value="&lt;font style=&quot;font-size: 7px;&quot;&gt;HTTP requesr&lt;/font&gt;" style="edgeLabel;resizable=0;html=1;;align=center;verticalAlign=middle;" connectable="0" vertex="1" parent="8v7cfthiRNaVu4QHmrS_-7">
          <mxGeometry relative="1" as="geometry" />
        </mxCell>
        <mxCell id="8v7cfthiRNaVu4QHmrS_-9" value="" style="aspect=fixed;sketch=0;html=1;dashed=0;whitespace=wrap;verticalLabelPosition=bottom;verticalAlign=top;fillColor=#2875E2;strokeColor=#ffffff;points=[[0.005,0.63,0],[0.1,0.2,0],[0.9,0.2,0],[0.5,0,0],[0.995,0.63,0],[0.72,0.99,0],[0.5,1,0],[0.28,0.99,0]];shape=mxgraph.kubernetes.icon2;kubernetesLabel=1;prIcon=api" vertex="1" parent="1">
          <mxGeometry x="320" y="145.5" width="67.19" height="64.5" as="geometry" />
        </mxCell>
        <mxCell id="8v7cfthiRNaVu4QHmrS_-10" value="" style="endArrow=classic;html=1;rounded=0;" edge="1" parent="1">
          <mxGeometry relative="1" as="geometry">
            <mxPoint x="387.19" y="179.5" as="sourcePoint" />
            <mxPoint x="487.19" y="179.5" as="targetPoint" />
          </mxGeometry>
        </mxCell>
        <mxCell id="8v7cfthiRNaVu4QHmrS_-11" value="&lt;font style=&quot;font-size: 8px;&quot;&gt;&lt;span style=&quot;&quot; class=&quot;hljs-keyword&quot;&gt;Database&lt;/span&gt; Queries&lt;/font&gt;" style="edgeLabel;resizable=0;html=1;;align=center;verticalAlign=middle;" connectable="0" vertex="1" parent="8v7cfthiRNaVu4QHmrS_-10">
          <mxGeometry relative="1" as="geometry" />
        </mxCell>
        <mxCell id="8v7cfthiRNaVu4QHmrS_-13" value="API Layer" style="text;html=1;align=center;verticalAlign=middle;whiteSpace=wrap;rounded=0;" vertex="1" parent="1">
          <mxGeometry x="320" y="100" width="60" height="30" as="geometry" />
        </mxCell>
        <mxCell id="8v7cfthiRNaVu4QHmrS_-14" value="database" style="text;html=1;align=center;verticalAlign=middle;whiteSpace=wrap;rounded=0;" vertex="1" parent="1">
          <mxGeometry x="500" y="100" width="60" height="30" as="geometry" />
        </mxCell>
        <mxCell id="8v7cfthiRNaVu4QHmrS_-18" value="" style="endArrow=classic;html=1;rounded=0;" edge="1" parent="1">
          <mxGeometry relative="1" as="geometry">
            <mxPoint x="360" y="220" as="sourcePoint" />
            <mxPoint x="410" y="280" as="targetPoint" />
          </mxGeometry>
        </mxCell>
        <mxCell id="8v7cfthiRNaVu4QHmrS_-19" value="API Calls" style="edgeLabel;resizable=0;html=1;;align=center;verticalAlign=middle;" connectable="0" vertex="1" parent="8v7cfthiRNaVu4QHmrS_-18">
          <mxGeometry relative="1" as="geometry" />
        </mxCell>
        <mxCell id="8v7cfthiRNaVu4QHmrS_-23" value="" style="image;aspect=fixed;html=1;points=[];align=center;fontSize=12;image=img/lib/azure2/databases/Azure_Database_PostgreSQL_Server.svg;" vertex="1" parent="1">
          <mxGeometry x="506" y="146" width="48" height="64" as="geometry" />
        </mxCell>
        <mxCell id="8v7cfthiRNaVu4QHmrS_-26" value="&lt;font style=&quot;font-size: 11px;&quot;&gt;external service&lt;span style=&quot;white-space: pre;&quot;&gt;&#x9;&lt;/span&gt;&lt;/font&gt;" style="swimlane;whiteSpace=wrap;html=1;" vertex="1" parent="1">
          <mxGeometry x="425" y="280" width="100" height="100" as="geometry">
            <mxRectangle x="425" y="290" width="140" height="30" as="alternateBounds" />
          </mxGeometry>
        </mxCell>
        <mxCell id="8v7cfthiRNaVu4QHmrS_-27" value="goverment api&lt;div&gt;email service&lt;/div&gt;" style="text;html=1;align=center;verticalAlign=middle;whiteSpace=wrap;rounded=0;" vertex="1" parent="8v7cfthiRNaVu4QHmrS_-26">
          <mxGeometry x="5" y="40" width="90" height="30" as="geometry" />
        </mxCell>
      </root>
    </mxGraphModel>
  </diagram>
</mxfile>
